<svg width="83" height="83" viewBox="0 0 83 83" fill="none" xmlns="http://www.w3.org/2000/svg">
<circle cx="41.5" cy="41.5" r="41.5" fill="#0C0E41"/>
<g clip-path="url(#clip0_2_12)">
<path d="M38.3333 28.1667C38.3333 27.1942 38.7196 26.2616 39.4073 25.5739C40.0949 24.8863 41.0275 24.5 42 24.5C42.9724 24.5 43.9051 24.8863 44.5927 25.5739C45.2803 26.2616 45.6666 27.1942 45.6666 28.1667C47.7721 29.1622 49.5669 30.7119 50.8587 32.6497C52.1506 34.5875 52.8908 36.8403 53 39.1667V44.6667C53.1379 45.8065 53.5416 46.8979 54.1785 47.8532C54.8153 48.8085 55.6676 49.6009 56.6666 50.1667H27.3333C28.3324 49.6009 29.1846 48.8085 29.8215 47.8532C30.4583 46.8979 30.862 45.8065 31 44.6667V39.1667C31.1092 36.8403 31.8494 34.5875 33.1412 32.6497C34.4331 30.7119 36.2279 29.1622 38.3333 28.1667" stroke="white" stroke-width="2.75" stroke-linecap="round" stroke-linejoin="round"/>
<path d="M36.5 50.1667V52C36.5 53.4587 37.0795 54.8576 38.1109 55.8891C39.1424 56.9205 40.5413 57.5 42 57.5C43.4587 57.5 44.8576 56.9205 45.8891 55.8891C46.9205 54.8576 47.5 53.4587 47.5 52V50.1667" stroke="white" stroke-width="2.75" stroke-linecap="round" stroke-linejoin="round"/>
</g>
<defs>
<clipPath id="clip0_2_12">
<rect width="44" height="44" fill="white" transform="translate(20 19)"/>
</clipPath>
</defs>
</svg>
