<svg width="34" height="34" viewBox="0 0 34 34" fill="none" xmlns="http://www.w3.org/2000/svg">
<g clip-path="url(#clip0_2_26)">
<path d="M31.1667 5.68082C29.75 6.37499 28.3617 6.65691 26.9167 7.08332C25.3286 5.29124 22.9741 5.19207 20.7117 6.03924C18.4493 6.88641 16.9674 8.95757 17 11.3333V12.75C12.4029 12.8676 8.30876 10.7737 5.66668 7.08332C5.66668 7.08332 -0.257824 17.6134 11.3333 22.6667C8.68134 24.4332 6.03643 25.6247 2.83334 25.5C7.51968 28.0542 12.6268 28.9326 17.0482 27.6491C22.1198 26.1757 26.2877 22.3748 27.8871 16.6812C28.3642 14.9496 28.6011 13.1606 28.5912 11.3645C28.5883 11.0117 30.7303 7.43749 31.1667 5.6794V5.68082Z" stroke="#158ABB" stroke-width="2.125" stroke-linecap="round" stroke-linejoin="round"/>
</g>
<defs>
<clipPath id="clip0_2_26">
<rect width="34" height="34" fill="white"/>
</clipPath>
</defs>
</svg>
